#!OML:ASF H:\Terrain\Patient Classification 1\Walking\steve\steve.ASF
:FULLY-SPECIFIED
:DEGREES
63
root 7.89567 15.5854 -25.0428 7.41572 -6.20038 -6.21461
lowerback -0.0640822 4.18884 6.41089
upperback -2.27626 5.68598 1.31659
thorax -1.83013 2.73926 -2.27478
lowerneck -9.18207 -1.30644 -2.82058
upperneck 14.5698 -1.88665 3.50951
head 5.97884 -0.802824 1.42618
rclavicle -1.0607e-014 -2.08724e-015
rhumerus -19.7217 8.05612 -85.9273
rradius 47.9415
rwrist -6.10282
rhand -22.9306 -37.2151
rfingers 7.12502
rthumb 3.51012 -67.166
lclavicle -1.0607e-014 -2.08724e-015
lhumerus -57.497 24.1719 57.6342
lradius 10.007
lwrist -32.8939
lhand -23.4972 -19.4859
lfingers 7.12502
lthumb 2.96294 10.4733
rfemur 1.01073 -4.74519 29.4599
rtibia 20.3253
rfoot -10.3768 25.85
rtoes 15.0484
lfemur -39.4237 2.256 -11.5467
ltibia 22.353
lfoot -13.34 8.85548
ltoes -17.815
64
root 7.91496 15.5744 -24.7857 7.71254 -6.66656 -6.64362
lowerback -0.217029 4.30672 6.7542
upperback -2.37307 5.83991 1.429
thorax -1.81161 2.80929 -2.33784
lowerneck -8.90905 -1.18744 -3.07388
upperneck 14.154 -1.71715 3.73715
head 5.79923 -0.721633 1.55281
rclavicle -6.23842e-014 2.18663e-015
rhumerus -19.2479 8.82893 -85.6766
rradius 49.3197
rwrist -6.27676
rhand -23.1086 -36.3935
rfingers 7.12502
rthumb 3.33825 -66.3471
lclavicle -6.23842e-014 2.18663e-015
lhumerus -58.264 24.1612 57.3246
lradius 9.30683
lwrist -32.201
lhand -24.0532 -18.2483
lfingers 7.12502
lthumb 2.42602 11.7176
rfemur 2.48478 -4.61292 29.5122
rtibia 18.9235
rfoot -9.9259 25.9563
rtoes 13.8394
lfemur -39.5691 1.87238 -10.5
ltibia 19.8548
lfoot -13.7426 9.46796
ltoes -18.8817
65
root 7.93221 15.5559 -24.5281 7.99405 -7.3488 -6.9423
lowerback -0.345787 4.51969 6.90727
upperback -2.49501 6.12038 1.46216
thorax -1.83022 2.94355 -2.37947
lowerneck -8.53702 -1.12797 -3.26125
upperneck 13.7378 -1.6544 4.05334
head 5.60654 -0.683626 1.68762
rclavicle 6.69966e-015 2.40529e-014
rhumerus -19.0487 9.87313 -85.2924
rradius 50.9262
rwrist -7.00004
rhand -21.2173 -35.8064
rfingers 7.12502
rthumb 5.16452 -65.7235
lclavicle 6.69966e-015 2.40529e-014
lhumerus -59.0157 24.0113 56.9964
lradius 8.66467
lwrist -31.4833
lhand -24.9939 -16.814
lfingers 7.12502
lthumb 1.51743 13.1603
rfemur 3.90711 -4.04171 29.4346
rtibia 17.5804
rfoot -8.68464 25.907
rtoes 13.5191
lfemur -39.7141 1.80508 -9.73114
ltibia 17.8609
lfoot -14.5807 9.99812
ltoes -18.8531
66
root 7.94938 15.539 -24.2718 8.25424 -7.94508 -7.06983
lowerback -0.486559 4.71879 6.89806
upperback -2.63234 6.37979 1.43372
thorax -1.86858 3.06895 -2.39495
lowerneck -8.3677 -1.11331 -3.33736
upperneck 13.5372 -1.64737 4.22402
head 5.51647 -0.674809 1.75398
rclavicle 1.02436e-014 1.2424e-015
rhumerus -18.9843 11.5232 -84.2981
rradius 52.8803
rwrist -8.36503
rhand -22.1606 -36.6856
rfingers 7.12502
rthumb 4.25368 -66.6228
lclavicle 1.02436e-014 1.2424e-015
lhumerus -59.785 23.695 56.636
lradius 8.23053
lwrist -30.5332
lhand -25.4151 -16.018
lfingers 7.12502
lthumb 1.11063 13.9589
rfemur 5.12265 -3.42263 29.2301
rtibia 16.473
rfoot -7.126 25.7865
rtoes 14.4741
lfemur -39.8409 1.67371 -9.14898
ltibia 16.2223
lfoot -15.28 10.3032
ltoes -17.7232
67
root 7.96865 15.528 -24.0104 8.47593 -8.35471 -7.06734
lowerback -0.728188 4.8395 6.8401
upperback -2.65825 6.5187 1.37294
thorax -1.74669 3.14252 -2.40222
lowerneck -8.78515 -1.12053 -3.29154
upperneck 13.6537 -1.64294 4.13108
head 5.62323 -0.671873 1.7169
rclavicle 4.54503e-014 -2.11706e-014
rhumerus -17.1836 10.6274 -84.7403
rradius 52.2572
rwrist -6.41062
rhand -23.0368 -36.0325
rfingers 7.12502
rthumb 3.40753 -65.9851
lclavicle 4.54503e-014 -2.11706e-014
lhumerus -60.4092 23.5019 56.3137
lradius 8.03347
lwrist -29.1703
lhand -25.0091 -15.1437
lfingers 7.12502
lthumb 1.50281 14.8308
rfemur 6.27189 -2.71481 28.918
rtibia 15.6694
rfoot -6.45096 25.5466
rtoes 14.8429
lfemur -39.8853 1.63711 -8.90696
ltibia 14.8406
lfoot -15.0341 10.3831
ltoes -19.0934
68
root 7.99121 15.508 -23.746 8.7577 -8.57979 -7.09639
lowerback -1.11166 4.88262 6.87251
upperback -2.62038 6.53862 1.31674
thorax -1.48101 3.16098 -2.43799
lowerneck -9.4519 -1.10598 -3.23316
upperneck 13.8632 -1.61118 4.06443
head 5.80112 -0.650277 1.68795
rclavicle -2.84712e-014 -1.97791e-014
rhumerus -15.9795 10.4859 -84.735
rradius 52.3243
rwrist -5.43231
rhand -21.0124 -33.2091
rfingers 7.12502
rthumb 5.36241 -63.1212
lclavicle -2.84712e-014 -1.97791e-014
lhumerus -60.7029 23.5857 56.0756
lradius 7.5121
lwrist -27.5952
lhand -24.773 -14.5775
lfingers 7.12502
lthumb 1.73083 15.3952
rfemur 7.38776 -2.1261 28.625
rtibia 14.9686
rfoot -5.89232 25.3264
rtoes 14.3322
lfemur -40.1511 1.97936 -9.12302
ltibia 14.0166
lfoot -14.2543 10.0528
ltoes -21.9678
69
root 8.01547 15.4658 -23.4846 9.00858 -8.72438 -7.24337
lowerback -1.2635 4.89512 7.04631
upperback -2.70774 6.54506 1.25334
thorax -1.46072 3.15941 -2.58687
lowerneck -9.36804 -1.04335 -3.40091
upperneck 13.5295 -1.54846 4.43603
head 5.68349 -0.603748 1.83641
rclavicle 2.22402e-014 2.69726e-014
rhumerus -15.8007 10.8182 -84.5404
rradius 53.3478
rwrist -5.01199
rhand -18.4102 -16.5459
rfingers 7.12502
rthumb 7.87446 -46.3793
lclavicle 2.22402e-014 2.69726e-014
lhumerus -61.1957 23.4785 55.6777
lradius 7.06939
lwrist -26.2602
lhand -25.2638 -14.5624
lfingers 7.12502
lthumb 1.25676 15.4137
rfemur 8.41 -2.11132 28.372
rtibia 14.3543
rfoot -4.17618 25.4886
rtoes 14.8891
lfemur -40.6486 2.7766 -9.6934
ltibia 13.908
lfoot -13.3968 9.23491
ltoes -24.3985
70
root 8.03556 15.4364 -23.2219 9.05015 -8.91016 -7.26051
lowerback -1.13638 4.93694 7.01113
upperback -2.84366 6.61828 1.1418
thorax -1.65671 3.18628 -2.69969
lowerneck -9.37779 -1.07666 -3.13042
upperneck 13.4995 -1.62267 4.35821
head 5.67632 -0.631848 1.7613
rclavicle -1.58282e-014 -1.60519e-014
rhumerus -16.1302 10.93 -84.361
rradius 54.5818
rwrist -4.17518
rhand -25.9356 -33.5471
rfingers 7.12502
rthumb 0.607941 -63.526
lclavicle -1.58282e-014 -1.60519e-014
lhumerus -61.869 23.0752 55.2209
lradius 7.03677
lwrist -25.1627
lhand -25.4288 -14.4584
lfingers 7.12502
lthumb 1.09744 15.5185
rfemur 9.31849 -2.2222 27.9727
rtibia 14.1597
rfoot -2.33826 25.7245
rtoes 15.6079
lfemur -40.8212 3.24801 -10.1735
ltibia 14.2826
lfoot -13.2087 8.07548
ltoes -24.1615
71
root 8.05202 15.4304 -22.9548 8.99278 -8.94764 -7.07068
lowerback -1.05853 4.95195 6.67767
upperback -2.94432 6.64857 1.02959
thorax -1.82382 3.19963 -2.64639
lowerneck -9.49441 -1.15264 -2.7825
upperneck 13.6294 -1.76085 4.22099
head 5.73857 -0.689209 1.65019
rclavicle 4.93856e-016 1.51076e-014
rhumerus -16.3939 10.7823 -84.1752
rradius 55.6107
rwrist -3.53584
rhand -23.9378 -37.4875
rfingers 7.12502
rthumb 2.53746 -67.4522
lclavicle 4.93856e-016 1.51076e-014
lhumerus -62.1793 22.8222 55.0062
lradius 6.65155
lwrist -24.3371
lhand -25.4301 -13.9617
lfingers 7.12502
lthumb 1.09621 16.0152
rfemur 10.0932 -1.68315 27.5612
rtibia 14.427
rfoot -1.27796 25.2808
rtoes 14.1925
lfemur -40.7522 2.99177 -10.471
ltibia 15.1454
lfoot -13.6715 6.89057
ltoes -20.9168
72
root 8.0637 15.412 -22.6866 8.8788 -8.88618 -6.84271
lowerback -0.872085 4.94542 6.25334
upperback -3.10111 6.66042 0.931972
thorax -2.1233 3.2012 -2.54322
lowerneck -8.89685 -1.19072 -3.12083
upperneck 13.1106 -1.86298 4.94928
head 5.48715 -0.714935 1.927
rclavicle -1.32037e-014 -1.96797e-014
rhumerus -16.8673 10.5812 -84.0304
rradius 56.7512
rwrist -3.41557
rhand -20.4447 -31.7778
rfingers 7.12502
rthumb 5.91053 -61.6754
lclavicle -1.32037e-014 -1.96797e-014
lhumerus -62.3287 22.587 54.8754
lradius 5.9585
lwrist -23.9342
lhand -25.7818 -13.794
lfingers 7.12502
lthumb 0.756516 16.1844
rfemur 10.7956 -0.520031 27.3466
rtibia 14.9722
rfoot -0.677987 24.1959
rtoes 10.3616
lfemur -40.7413 2.91769 -11.0896
ltibia 16.5461
lfoot -13.3853 5.8734
ltoes -18.7222
